<svg width="41" height="41" viewBox="0 0 41 41" fill="none" xmlns="http://www.w3.org/2000/svg">
<path d="M15.375 18.7917H11.9583V22.2084H15.375V18.7917ZM22.2083 18.7917H18.7917V22.2084H22.2083V18.7917ZM29.0417 18.7917H25.625V22.2084H29.0417V18.7917ZM32.4583 6.83341H30.75V3.41675H27.3333V6.83341H13.6667V3.41675H10.25V6.83341H8.54167C6.64542 6.83341 5.14208 8.37091 5.14208 10.2501L5.125 34.1667C5.125 35.0729 5.48497 35.9419 6.12572 36.5827C6.76647 37.2234 7.63551 37.5834 8.54167 37.5834H32.4583C34.3375 37.5834 35.875 36.0459 35.875 34.1667V10.2501C35.875 8.37091 34.3375 6.83341 32.4583 6.83341ZM32.4583 34.1667H8.54167V15.3751H32.4583V34.1667Z" fill="#767676"/>
</svg>
