<svg width="30" height="30" viewBox="0 0 30 30" fill="none"
    xmlns="http://www.w3.org/2000/svg">
    <g clip-path="url(#clip0)">
        <path d="M25.2846 2.68303C25.7983 2.16452 26.4964 1.87044 27.2263 1.86507C27.9561 1.85969 28.6585 2.14345 29.1798 2.65434C29.7011 3.16522 29.9989 3.86169 30.0083 4.59152C30.0176 5.32136 29.7377 6.02522 29.2296 6.54928L14.5296 24.9262C14.2771 25.1981 13.9723 25.4163 13.6336 25.5678C13.2949 25.7193 12.9291 25.801 12.558 25.808C12.187 25.815 11.8184 25.7471 11.4742 25.6085C11.13 25.4699 10.8172 25.2633 10.5546 25.0012L1.95582 16.4063C1.43791 15.8882 1.14704 15.1855 1.14722 14.4528C1.14739 13.7202 1.43859 13.0177 1.95676 12.4998C2.47493 11.9818 3.17761 11.691 3.91024 11.6911C4.64286 11.6913 5.34541 11.9825 5.86332 12.5007L12.424 19.063L25.2115 2.76928C25.2347 2.73963 25.2598 2.71145 25.2865 2.6849L25.2846 2.68303Z" fill="white"/>
    </g>
    <defs>
        <clipPath id="clip0">
            <rect width="30" height="30" fill="white"/>
        </clipPath>
    </defs>
</svg>
