<svg width="46" height="46" viewBox="0 0 46 46" fill="none" xmlns="http://www.w3.org/2000/svg">
<path d="M17.5 31.7061C17.5 31.3248 17.6515 30.9592 17.921 30.6896C18.1906 30.42 18.5563 30.2686 18.9375 30.2686H27.5625C27.9437 30.2686 28.3094 30.42 28.579 30.6896C28.8485 30.9592 29 31.3248 29 31.7061C29 32.0873 28.8485 32.4529 28.579 32.7225C28.3094 32.9921 27.9437 33.1436 27.5625 33.1436H18.9375C18.5563 33.1436 18.1906 32.9921 17.921 32.7225C17.6515 32.4529 17.5 32.0873 17.5 31.7061ZM11.75 23.0811C11.75 22.6998 11.9015 22.3342 12.171 22.0646C12.4406 21.795 12.8063 21.6436 13.1875 21.6436H33.3125C33.6937 21.6436 34.0594 21.795 34.329 22.0646C34.5985 22.3342 34.75 22.6998 34.75 23.0811C34.75 23.4623 34.5985 23.8279 34.329 24.0975C34.0594 24.3671 33.6937 24.5186 33.3125 24.5186H13.1875C12.8063 24.5186 12.4406 24.3671 12.171 24.0975C11.9015 23.8279 11.75 23.4623 11.75 23.0811ZM6 14.4561C6 14.0748 6.15145 13.7092 6.42103 13.4396C6.69062 13.17 7.05625 13.0186 7.4375 13.0186H39.0625C39.4437 13.0186 39.8094 13.17 40.079 13.4396C40.3485 13.7092 40.5 14.0748 40.5 14.4561C40.5 14.8373 40.3485 15.2029 40.079 15.4725C39.8094 15.7421 39.4437 15.8936 39.0625 15.8936H7.4375C7.05625 15.8936 6.69062 15.7421 6.42103 15.4725C6.15145 15.2029 6 14.8373 6 14.4561Z" fill="#767676"/>
</svg>
