<svg width="40" height="34" viewBox="0 0 40 34" fill="none" xmlns="http://www.w3.org/2000/svg">
<path d="M19.4697 8.82049L6.66719 20.3461V32.7856C6.66719 33.1077 6.78425 33.4166 6.99261 33.6443C7.20096 33.8721 7.48356 34 7.77822 34L15.5596 33.978C15.8533 33.9764 16.1344 33.8477 16.3416 33.6202C16.5487 33.3926 16.665 33.0846 16.665 32.7636V25.4991C16.665 25.177 16.7821 24.8681 16.9904 24.6403C17.1988 24.4126 17.4814 24.2846 17.7761 24.2846H22.2202C22.5148 24.2846 22.7974 24.4126 23.0058 24.6403C23.2141 24.8681 23.3312 25.177 23.3312 25.4991V32.7583C23.3307 32.9181 23.3591 33.0764 23.4148 33.2242C23.4704 33.3719 23.5522 33.5063 23.6554 33.6194C23.7586 33.7326 23.8812 33.8224 24.0162 33.8837C24.1513 33.9449 24.296 33.9765 24.4422 33.9765L32.2208 34C32.5154 34 32.798 33.8721 33.0064 33.6443C33.2148 33.4166 33.3318 33.1077 33.3318 32.7856V20.3378L20.5321 8.82049C20.3816 8.68791 20.1942 8.61561 20.0009 8.61561C19.8076 8.61561 19.6202 8.68791 19.4697 8.82049ZM39.6924 16.6543L33.8873 11.4239V0.910816C33.8873 0.669253 33.7995 0.437583 33.6433 0.266772C33.487 0.0959609 33.275 0 33.0541 0H29.1655C28.9445 0 28.7325 0.0959609 28.5763 0.266772C28.42 0.437583 28.3322 0.669253 28.3322 0.910816V6.42201L22.1153 0.83112C21.5187 0.294481 20.7701 0.00107275 19.9974 0.00107275C19.2248 0.00107275 18.4761 0.294481 17.8795 0.83112L0.302406 16.6543C0.218029 16.7305 0.14822 16.8242 0.0969688 16.9299C0.0457172 17.0356 0.0140272 17.1514 0.00370954 17.2705C-0.00660814 17.3896 0.00464871 17.5098 0.0368369 17.6241C0.0690251 17.7385 0.121514 17.8448 0.191304 17.937L1.962 20.2899C2.0316 20.3825 2.11721 20.459 2.21392 20.5153C2.31064 20.5716 2.41656 20.6065 2.52563 20.618C2.6347 20.6295 2.74477 20.6174 2.84954 20.5823C2.95432 20.5472 3.05173 20.4899 3.13622 20.4137L19.4697 5.70854C19.6202 5.57596 19.8076 5.50366 20.0009 5.50366C20.1942 5.50366 20.3816 5.57596 20.5321 5.70854L36.8663 20.4137C36.9506 20.4899 37.0479 20.5473 37.1525 20.5825C37.2571 20.6177 37.3671 20.63 37.476 20.6187C37.585 20.6074 37.6909 20.5728 37.7876 20.5168C37.8844 20.4608 37.97 20.3845 38.0398 20.2922L39.8105 17.9393C39.8802 17.8466 39.9325 17.7397 39.9643 17.6248C39.9961 17.51 40.0068 17.3894 39.9958 17.27C39.9849 17.1505 39.9524 17.0347 39.9003 16.929C39.8483 16.8234 39.7776 16.73 39.6924 16.6543Z" fill="#535353"/>
</svg>
