<svg width="100" height="100" viewBox="0 0 100 100" fill="none"
    xmlns="http://www.w3.org/2000/svg">
    <path d="M58.9898 50.505H66.1111V63.8929L77.6949 70.5868L74.1343 76.7586L58.9898 68.0232V50.505ZM11.5151 3.03027H77.9797C80.498 3.03027 82.913 4.03063 84.6937 5.81128C86.4743 7.59193 87.4747 10.007 87.4747 12.5252V41.4848C93.3616 47.4666 96.9696 55.6798 96.9696 64.7474C96.9696 73.5612 93.4684 82.014 87.2361 88.2462C81.0038 94.4785 72.5511 97.9798 63.7373 97.9798C54.6696 97.9798 46.4565 94.3717 40.4747 88.4848H11.5151C8.99687 88.4848 6.5818 87.4845 4.80115 85.7038C3.0205 83.9232 2.02014 81.5081 2.02014 78.9899V12.5252C2.02014 10.007 3.0205 7.59193 4.80115 5.81128C6.5818 4.03063 8.99687 3.03027 11.5151 3.03027ZM11.5151 64.7474V78.9899H33.6858C31.6444 74.6697 30.505 69.8272 30.505 64.7474H11.5151ZM11.5151 31.5151H39.9999V17.2727H11.5151V31.5151ZM77.9797 31.5151V17.2727H49.4949V31.5151H77.9797ZM11.5151 55.2525H31.8818C33.4959 49.7929 36.4868 44.903 40.4747 41.0101H11.5151V55.2525ZM63.7373 41.7222C57.6306 41.7222 51.7741 44.1481 47.456 48.4661C43.1379 52.7842 40.7121 58.6408 40.7121 64.7474C40.7121 77.4707 51.0141 87.7727 63.7373 87.7727C66.761 87.7727 69.7551 87.1771 72.5487 86.02C75.3422 84.8629 77.8805 83.1668 80.0186 81.0288C82.1567 78.8907 83.8528 76.3524 85.0099 73.5588C86.167 70.7653 86.7626 67.7712 86.7626 64.7474C86.7626 52.0242 76.4605 41.7222 63.7373 41.7222Z" fill="#FB78AE"/>
</svg>
