<svg width="114" height="74" viewBox="0 0 114 74" fill="none"
    xmlns="http://www.w3.org/2000/svg">
    <path d="M86.7141 20.7143C85.1409 20.7143 83.6019 20.8566 82.1028 21.1014C78.3636 8.89138 66.7812 0 53.0613 0C36.309 0 22.7373 13.2517 22.7373 29.5943C22.7373 31.0515 22.8513 32.486 23.0622 33.8977C22.2509 33.7974 21.4344 33.7461 20.6169 33.744C9.2283 33.744 0 42.7492 0 53.8663C0 64.9834 9.2283 74 20.6169 74H45.6V51.2308H31.35L57 22.7692L82.65 51.2308H68.4V74H86.7141C101.779 74 114 62.0689 114 47.36C114 32.6397 101.779 20.7143 86.7141 20.7143Z" fill="#FB78AE"/>
</svg>
